<?xml version="1.0" standalone="no"?>
<!DOCTYPE svg PUBLIC "-//W3C//DTD SVG 20010904//EN"
 "http://www.w3.org/TR/2001/REC-SVG-20010904/DTD/svg10.dtd">
<svg version="1.0" xmlns="http://www.w3.org/2000/svg"
 width="1222.000000pt" height="1222.000000pt" viewBox="0 0 1222.000000 1222.000000"
 preserveAspectRatio="xMidYMid meet">
<metadata>
Created by potrace 1.14, written by Peter Selinger 2001-2017
</metadata>
<g transform="translate(0.000000,1222.000000) scale(0.100000,-0.100000)"
fill="#000000" stroke="none">
<path d="M5840 10903 c-180 -16 -288 -26 -305 -29 -11 -1 -72 -10 -135 -19
-126 -18 -299 -52 -430 -85 -47 -11 -92 -22 -100 -24 -8 -2 -63 -18 -121 -35
-460 -134 -914 -344 -1329 -615 -114 -75 -374 -266 -445 -328 -17 -14 -68 -58
-115 -99 -101 -87 -353 -338 -429 -427 l-54 -62 -51 4 c-92 8 -475 60 -601 81
-16 3 -57 10 -90 16 -96 16 -445 88 -502 103 -29 8 -53 11 -53 6 0 -4 18 -63
40 -131 39 -122 41 -126 150 -269 154 -201 138 -186 208 -194 l61 -7 12 -57
c7 -31 13 -61 15 -67 20 -98 35 -128 104 -212 40 -48 82 -90 94 -93 11 -3 21
-10 21 -15 0 -6 -39 -86 -86 -180 -47 -93 -96 -197 -109 -230 -13 -33 -27 -64
-31 -70 -10 -15 -85 -211 -131 -345 -98 -287 -194 -702 -223 -971 -3 -31 -7
-65 -9 -75 -2 -11 -7 -64 -11 -119 -4 -55 -9 -111 -11 -125 -5 -33 -5 -588 0
-620 3 -14 7 -70 11 -125 3 -55 8 -107 10 -115 4 -14 9 -52 20 -150 3 -25 8
-57 11 -72 3 -15 7 -39 9 -55 2 -15 14 -77 25 -138 12 -60 24 -132 25 -160 9
-131 159 -595 287 -885 310 -705 754 -1297 1373 -1829 399 -344 959 -667 1485
-858 376 -136 822 -243 1125 -269 28 -2 66 -6 85 -9 35 -6 120 -12 245 -20 88
-5 427 -5 520 0 167 9 234 14 256 19 13 3 51 8 84 10 52 4 264 36 335 51 14 3
41 8 60 11 68 12 284 65 369 90 47 14 93 27 102 29 61 13 357 121 505 184 677
288 1344 775 1813 1326 51 61 104 122 117 137 43 50 190 251 261 358 162 244
323 537 422 770 18 41 36 84 41 95 60 134 160 427 212 625 40 150 94 418 112
555 3 22 8 50 10 62 3 12 8 53 11 90 4 37 8 79 10 92 26 158 26 854 0 989 -1
9 -6 44 -9 77 -37 342 -134 765 -249 1085 -102 283 -246 600 -354 780 -18 30
-33 60 -33 65 1 6 25 36 54 68 54 57 54 57 77 177 l23 120 31 0 c34 0 30 -3
175 160 41 47 89 100 105 118 36 41 43 51 49 83 3 13 14 63 24 112 11 48 18
87 15 87 -2 0 -39 -9 -81 -19 -72 -18 -154 -35 -329 -66 -52 -9 -377 -53 -438
-60 -33 -3 -71 -7 -85 -10 -14 -2 -55 -7 -92 -10 l-67 -6 -38 43 c-546 615
-1221 1081 -1983 1371 -308 116 -646 205 -995 261 -234 38 -467 54 -770 53
-154 0 -296 -2 -315 -4z"/>
</g>
</svg>
